<svg width="618" height="618" viewBox="0 0 618 618" fill="none" xmlns="http://www.w3.org/2000/svg"><rect width="618" height="618" rx="175" fill="#2B99A0"/><path d="m371.65 266.6 61.5-61.5v51.38a14.32 14.32 0 1 0 28.65 0v-85.96a14.32 14.32 0 0 0-14.32-14.32h-85.96a14.32 14.32 0 1 0 0 28.65h51.38l-61.5 61.5a14.32 14.32 0 0 0 20.25 20.25ZM156.2 447.48v-85.96a14.32 14.32 0 1 1 28.65 0v51.38l61.5-61.5a14.32 14.32 0 0 1 20.25 20.25l-61.5 61.5h51.38a14.32 14.32 0 1 1 0 28.65h-85.96a14.27 14.27 0 0 1-14.32-14.32Zm195.2-75.83 61.5 61.5h-51.38a14.32 14.32 0 1 0 0 28.65h85.96a14.27 14.27 0 0 0 14.32-14.32v-85.96a14.32 14.32 0 1 0-28.65 0v51.38l-61.5-61.5a14.33 14.33 0 1 0-20.25 20.25ZM184.85 205.1l61.5 61.5a14.32 14.32 0 0 0 20.25-20.25l-61.5-61.5h51.38a14.32 14.32 0 1 0 0-28.65h-85.96a14.32 14.32 0 0 0-14.32 14.33v85.95a14.32 14.32 0 1 0 28.65 0V205.1Z" fill="#fff"/></svg>
